# File created by Blade
# Date/Time:  Tue Jan 27 18:35:03 2015
# Frame Rate: 120.000 fps
#------------------------------------------------------
:FULLY-SPECIFIED
:DEGREES
1347
root -4.017565 31.538098 -1.951860 -13.375388 15.106845 -15.595385
Spine 13.706485 -13.644521 -3.011246
Head 9.341509 -2.252397 20.416439
LeftShoulder -12.713916 10.568055 19.208435
LeftArm 33.152566 -14.565647 -73.682253
LeftForeArm 127.797294 -0.000000 133.824013
LeftHand 9.519280 0.000000 -7.302897
LeftHandThumb1 -26.253704 0.000000 33.147579
RightShoulder -16.186057 -9.574485 -4.768153
RightArm 1.935935 -34.828983 84.235499
RightForeArm -23.515059 -0.000000 29.972178
RightHand -13.815965 -0.000000 12.105953
RightHandThumb1 -24.326973 -0.000000 -32.862282
LeftUpLeg -4.231910 2.728379 9.757296
LeftLeg 36.074203 -0.000000 -0.000000
LeftFoot -31.414948 8.901387 -18.877811
LeftToeBase 10.571154 -0.000000 -0.000000
RightUpLeg -87.024231 4.836565 25.015919
RightLeg 84.674311 -0.000000 -0.000000
RightFoot 4.404453 -13.299077 15.261487
RightToeBase 5.130131 -0.000000 -0.000000
1348
root -4.016960 31.538558 -1.954315 -13.348617 15.106644 -15.603511
Spine 13.689239 -13.677166 -2.996381
Head 9.361019 -2.259495 20.430207
LeftShoulder -12.704935 10.548865 19.219186
LeftArm 33.198796 -14.338582 -73.610361
LeftForeArm 127.974950 -0.000000 133.820611
LeftHand 9.590243 -0.000000 -7.485539
LeftHandThumb1 -26.253704 0.000000 33.147579
RightShoulder -16.171191 -9.553228 -4.783084
RightArm 1.934399 -34.855816 84.260414
RightForeArm -23.492991 -0.000000 29.885052
RightHand -13.820220 -0.000000 12.108615
RightHandThumb1 -24.326973 -0.000000 -32.862282
LeftUpLeg -4.263795 2.731467 9.761482
LeftLeg 36.070353 -0.000000 -0.000000
LeftFoot -31.403315 8.913583 -18.855877
LeftToeBase 10.619616 -0.000000 -0.000000
RightUpLeg -87.035505 4.820204 25.028773
RightLeg 84.667344 -0.000000 -0.000000
RightFoot 4.411826 -13.309344 15.281113
RightToeBase 5.091454 -0.000000 -0.000000
1349
root -4.016577 31.538970 -1.956385 -13.334979 15.103240 -15.604948
Spine 13.686433 -13.676901 -2.993268
Head 9.383507 -2.273303 20.474009
LeftShoulder -12.668578 10.535860 19.244603
LeftArm 33.251075 -14.133459 -73.543452
LeftForeArm 128.185513 -0.000000 133.803930
LeftHand 9.532591 -0.000000 -7.647773
LeftHandThumb1 -26.253704 0.000000 33.147579
RightShoulder -16.181737 -9.552681 -4.785461
RightArm 1.951290 -34.876216 84.277411
RightForeArm -23.496161 0.000000 29.808312
RightHand -13.798237 -0.000000 12.168691
RightHandThumb1 -24.326973 -0.000000 -32.862282
LeftUpLeg -4.279648 2.739669 9.763622
LeftLeg 36.067224 -0.000000 -0.000000
LeftFoot -31.393221 8.895077 -18.866306
LeftToeBase 10.575769 -0.000000 -0.000000
RightUpLeg -87.034440 4.801532 25.036445
RightLeg 84.660378 -0.000000 -0.000000
RightFoot 4.423788 -13.269447 15.806611
RightToeBase 4.533585 -0.000000 -0.000000
1350
root -4.015600 31.540183 -1.958711 -13.310733 15.100312 -15.607119
Spine 13.657947 -13.628475 -2.983553
Head 9.418011 -2.342702 20.544736
LeftShoulder -12.564933 10.550276 19.295454
LeftArm 33.335518 -13.922060 -73.536174
LeftForeArm 128.303188 -0.000000 133.763861
LeftHand 9.402667 0.000000 -7.607904
LeftHandThumb1 -26.253704 0.000000 33.147579
RightShoulder -16.222251 -9.575177 -4.756974
RightArm 1.974930 -34.870076 84.268440
RightForeArm -23.513252 -0.000000 29.748645
RightHand -13.786330 -0.000000 12.244260
RightHandThumb1 -24.326973 -0.000000 -32.862282
LeftUpLeg -4.302859 2.755430 9.764178
LeftLeg 36.056421 -0.000000 -0.000000
LeftFoot -31.382139 8.892127 -18.858164
LeftToeBase 10.579811 -0.000000 -0.000000
RightUpLeg -87.045891 4.784879 25.051561
RightLeg 84.653550 -0.000000 -0.000000
RightFoot 4.412616 -13.284937 15.852827
RightToeBase 4.493175 -0.000000 -0.000000
1351
root -4.013827 31.540390 -1.961600 -13.286757 15.101718 -15.608580
Spine 13.647894 -13.644960 -2.972875
Head 9.419716 -2.351052 20.567743
LeftShoulder -12.548087 10.513690 19.308488
LeftArm 33.383406 -13.713034 -73.471571
LeftForeArm 128.423135 -0.000000 133.755206
LeftHand 9.480675 -0.000000 -7.782757
LeftHandThumb1 -26.253704 0.000000 33.147579
RightShoulder -16.222342 -9.572583 -4.764247
RightArm 1.993404 -34.883878 84.276560
RightForeArm -23.507891 -0.000000 29.685147
RightHand -13.809123 -0.000000 12.247939
RightHandThumb1 -24.326973 -0.000000 -32.862282
LeftUpLeg -4.332580 2.758795 9.758779
LeftLeg 36.056466 -0.000000 -0.000000
LeftFoot -31.383022 8.895448 -18.863529
LeftToeBase 10.618575 -0.000000 -0.000000
RightUpLeg -87.065400 4.758300 25.070248
RightLeg 84.654231 -0.000000 -0.000000
RightFoot 4.363980 -13.324019 15.856815
RightToeBase 4.515541 -0.000000 -0.000000
1352
root -4.013053 31.540452 -1.964189 -13.256862 15.094141 -15.610979
Spine 13.633553 -13.642502 -2.958028
Head 9.406032 -2.363768 20.594422
LeftShoulder -12.525222 10.477459 19.310363
LeftArm 33.454532 -13.537833 -73.451082
LeftForeArm 128.620143 -0.000000 133.734336
LeftHand 9.557345 -0.000000 -7.883378
LeftHandThumb1 -26.253704 0.000000 33.147579
RightShoulder -16.241612 -9.560972 -4.764502
RightArm 1.989202 -34.870288 84.289285
RightForeArm -23.529981 -0.000000 29.657004
RightHand -13.813270 -0.000000 12.285133
RightHandThumb1 -24.326973 -0.000000 -32.862282
LeftUpLeg -4.363109 2.778430 9.759129
LeftLeg 36.051460 -0.000000 -0.000000
LeftFoot -31.381890 8.901396 -18.841186
LeftToeBase 10.660113 -0.000000 -0.000000
RightUpLeg -87.091516 4.748445 25.095938
RightLeg 84.654327 -0.000000 -0.000000
RightFoot 4.322104 -13.398961 15.546063
RightToeBase 4.807063 -0.000000 -0.000000
1353
root -4.011497 31.540451 -1.967342 -13.230665 15.093978 -15.616880
Spine 13.627240 -13.654246 -2.938775
Head 9.380864 -2.367905 20.603978
LeftShoulder -12.501899 10.424637 19.307287
LeftArm 33.498073 -13.357175 -73.392593
LeftForeArm 128.730725 -0.000000 133.720145
LeftHand 9.551503 -0.000000 -7.957262
LeftHandThumb1 -26.253704 0.000000 33.147579
RightShoulder -16.249599 -9.536182 -4.771143
RightArm 1.970095 -34.868780 84.300815
RightForeArm -23.544926 0.000000 29.639777
RightHand -13.806269 0.000000 12.304459
RightHandThumb1 -24.326973 -0.000000 -32.862282
LeftUpLeg -4.393436 2.791024 9.758509
LeftLeg 36.045171 -0.000000 -0.000000
LeftFoot -31.371667 8.916931 -18.814237
LeftToeBase 10.601614 -0.000000 -0.000000
RightUpLeg -87.119389 4.727461 25.117818
RightLeg 84.655426 -0.000000 -0.000000
RightFoot 4.307022 -13.413927 15.755507
RightToeBase 4.614373 -0.000000 -0.000000
